                  <svg
                    xmlns="http://www.w3.org/2000/svg"
                    width="254"
                    height="27"
                    viewBox="0 0 254 27"
                    fill="none" > <path
                      d="M0.19 1.22C0.773333 1.24333 1.555 1.26667 2.535 1.29C3.53833 1.31333 4.53 1.325 5.51 1.325C6.63 1.325 7.715 1.31333 8.765 1.29C9.815 1.26667 10.5617 1.255 11.005 1.255C14.2483 1.255 16.675 1.89667 18.285 3.18C19.895 4.46333 20.7 6.12 20.7 8.15C20.7 8.99 20.5367 9.87667 20.21 10.81C19.8833 11.72 19.3233 12.5717 18.53 13.365C17.76 14.135 16.6983 14.765 15.345 15.255C13.9917 15.745 12.2883 15.99 10.235 15.99H6.665V15.29H9.885C11.2617 15.29 12.3 14.975 13 14.345C13.7233 13.715 14.2133 12.8867 14.47 11.86C14.75 10.8333 14.89 9.725 14.89 8.535C14.89 6.31833 14.5633 4.66167 13.91 3.565C13.2567 2.46833 12.1367 1.92 10.55 1.92C9.64 1.92 9.045 2.11833 8.765 2.515C8.50833 2.91167 8.38 3.71666 8.38 4.93V22.08C8.38 22.99 8.47333 23.6667 8.66 24.11C8.84667 24.5533 9.20833 24.845 9.745 24.985C10.2817 25.125 11.075 25.2067 12.125 25.23V26C11.4017 25.9767 10.4683 25.9533 9.325 25.93C8.18167 25.9067 6.98 25.895 5.72 25.895C4.71667 25.895 3.73667 25.9067 2.78 25.93C1.82333 25.9533 0.96 25.9767 0.19 26V25.3C0.936667 25.2533 1.49667 25.16 1.87 25.02C2.24333 24.88 2.48833 24.6 2.605 24.18C2.745 23.76 2.815 23.13 2.815 22.29V4.93C2.815 4.06666 2.745 3.43667 2.605 3.04C2.48833 2.62 2.23167 2.34 1.835 2.2C1.46167 2.03667 0.913333 1.94333 0.19 1.92V1.22ZM23.841 1.22C24.4243 1.24333 25.206 1.26667 26.186 1.29C27.1893 1.31333 28.181 1.325 29.161 1.325C30.281 1.325 31.366 1.31333 32.416 1.29C33.466 1.26667 34.2126 1.255 34.656 1.255C36.826 1.255 38.6226 1.5 40.046 1.99C41.4926 2.45667 42.566 3.145 43.266 4.055C43.9893 4.965 44.351 6.06167 44.351 7.345C44.351 8.13833 44.1876 8.94333 43.861 9.76C43.5343 10.5533 42.9743 11.3 42.181 12C41.411 12.6767 40.3493 13.225 38.996 13.645C37.6426 14.0417 35.9393 14.24 33.886 14.24H30.526V13.54H33.536C34.9126 13.54 35.951 13.2833 36.651 12.77C37.3743 12.2333 37.8643 11.5333 38.121 10.67C38.401 9.78333 38.541 8.80333 38.541 7.73C38.541 5.88667 38.2143 4.46333 37.561 3.46C36.9076 2.43333 35.7876 1.92 34.201 1.92C33.291 1.92 32.696 2.11833 32.416 2.515C32.1593 2.91167 32.031 3.71666 32.031 4.93V22.29C32.031 23.13 32.0893 23.76 32.206 24.18C32.346 24.6 32.6026 24.88 32.976 25.02C33.3493 25.16 33.9093 25.2533 34.656 25.3V26C34.026 25.9533 33.2326 25.93 32.276 25.93C31.3193 25.9067 30.351 25.895 29.371 25.895C28.251 25.895 27.1893 25.9067 26.186 25.93C25.206 25.93 24.4243 25.9533 23.841 26V25.3C24.5876 25.2533 25.1476 25.16 25.521 25.02C25.8943 24.88 26.1393 24.6 26.256 24.18C26.396 23.76 26.466 23.13 26.466 22.29V4.93C26.466 4.06666 26.396 3.43667 26.256 3.04C26.1393 2.62 25.8826 2.34 25.486 2.2C25.1126 2.03667 24.5643 1.94333 23.841 1.92V1.22ZM30.456 13.645C31.4593 13.6683 32.3226 13.715 33.046 13.785C33.7926 13.855 34.446 13.925 35.006 13.995C35.566 14.0417 36.0676 14.0767 36.511 14.1C38.6343 14.2867 40.1976 14.7417 41.201 15.465C42.2276 16.1883 42.8926 17.2733 43.196 18.72L44.001 22.325C44.211 23.2583 44.4326 23.9117 44.666 24.285C44.8993 24.6583 45.2376 24.845 45.681 24.845C45.9843 24.8217 46.2293 24.7517 46.416 24.635C46.626 24.495 46.8476 24.2967 47.081 24.04L47.571 24.46C46.941 25.1833 46.2643 25.6967 45.541 26C44.8176 26.3267 43.9426 26.49 42.916 26.49C41.656 26.49 40.6176 26.2217 39.801 25.685C38.9843 25.1483 38.4476 24.1567 38.191 22.71L37.561 19.21C37.3976 18.23 37.1993 17.3783 36.966 16.655C36.7326 15.9083 36.406 15.325 35.986 14.905C35.5893 14.4617 35.0293 14.24 34.306 14.24H30.526L30.456 13.645ZM61.1644 1.15L69.6694 23.06C69.996 23.9 70.3577 24.4833 70.7544 24.81C71.1744 25.1133 71.5477 25.2767 71.8744 25.3V26C71.1744 25.9533 70.346 25.93 69.3894 25.93C68.456 25.9067 67.511 25.895 66.5544 25.895C65.481 25.895 64.466 25.9067 63.5094 25.93C62.5527 25.93 61.7944 25.9533 61.2344 26V25.3C62.4244 25.2533 63.171 25.055 63.4744 24.705C63.801 24.3317 63.731 23.55 63.2644 22.36L57.3144 6.085L57.9444 5.175L52.6244 19.035C52.111 20.3183 51.796 21.3683 51.6794 22.185C51.586 23.0017 51.6444 23.6317 51.8544 24.075C52.0877 24.5183 52.4494 24.8333 52.9394 25.02C53.4527 25.1833 54.0594 25.2767 54.7594 25.3V26C53.9894 25.9533 53.2544 25.93 52.5544 25.93C51.8544 25.9067 51.1427 25.895 50.4194 25.895C49.906 25.895 49.416 25.9067 48.9494 25.93C48.506 25.93 48.1094 25.9533 47.7594 26V25.3C48.2494 25.2067 48.751 24.8917 49.2644 24.355C49.7777 23.8183 50.2794 22.9083 50.7694 21.625L58.7494 1.15C59.1227 1.17333 59.5194 1.185 59.9394 1.185C60.3827 1.185 60.791 1.17333 61.1644 1.15ZM63.6144 15.92V16.62H53.1844L53.5344 15.92H63.6144ZM93.1407 1.22C93.0474 2.41 92.9774 3.55333 92.9307 4.65C92.9074 5.74667 92.8957 6.58667 92.8957 7.17C92.8957 7.68333 92.9074 8.17333 92.9307 8.64C92.954 9.10667 92.9774 9.50333 93.0007 9.83H92.1957C91.8224 7.87 91.344 6.31833 90.7607 5.175C90.2007 4.03167 89.524 3.22667 88.7307 2.76C87.9374 2.27 87.004 2.025 85.9307 2.025H85.1257V22.01C85.1257 22.9433 85.219 23.6433 85.4057 24.11C85.6157 24.5767 85.989 24.8917 86.5257 25.055C87.0624 25.195 87.844 25.2767 88.8707 25.3V26C88.1474 25.9767 87.179 25.9533 85.9657 25.93C84.7757 25.9067 83.5274 25.895 82.2207 25.895C80.9374 25.895 79.724 25.9067 78.5807 25.93C77.4374 25.9533 76.5157 25.9767 75.8157 26V25.3C76.8657 25.2767 77.659 25.195 78.1957 25.055C78.7324 24.8917 79.094 24.5767 79.2807 24.11C79.4674 23.6433 79.5607 22.9433 79.5607 22.01V2.025H78.7907C77.7174 2.025 76.784 2.27 75.9907 2.76C75.1974 3.22667 74.5207 4.03167 73.9607 5.175C73.4007 6.295 72.9107 7.84667 72.4907 9.83H71.6857C71.7324 9.50333 71.7557 9.10667 71.7557 8.64C71.779 8.17333 71.7907 7.68333 71.7907 7.17C71.7907 6.58667 71.7674 5.74667 71.7207 4.65C71.6974 3.55333 71.639 2.41 71.5457 1.22C72.619 1.24333 73.7857 1.26667 75.0457 1.29C76.329 1.31333 77.6124 1.325 78.8957 1.325C80.179 1.325 81.334 1.325 82.3607 1.325C83.4107 1.325 84.5657 1.325 85.8257 1.325C87.109 1.325 88.3924 1.31333 89.6757 1.29C90.959 1.26667 92.114 1.24333 93.1407 1.22ZM107.455 1.22V1.92C106.708 1.94333 106.136 2.03667 105.74 2.2C105.366 2.34 105.121 2.62 105.005 3.04C104.888 3.43667 104.83 4.06666 104.83 4.93V22.29C104.83 23.13 104.888 23.76 105.005 24.18C105.145 24.6 105.401 24.88 105.775 25.02C106.148 25.16 106.708 25.2533 107.455 25.3V26C106.825 25.9533 106.031 25.93 105.075 25.93C104.118 25.9067 103.15 25.895 102.17 25.895C101.026 25.895 99.9646 25.9067 98.9846 25.93C98.0279 25.93 97.2463 25.9533 96.6396 26V25.3C97.3863 25.2533 97.9463 25.16 98.3196 25.02C98.6929 24.88 98.9379 24.6 99.0546 24.18C99.1946 23.76 99.2646 23.13 99.2646 22.29V4.93C99.2646 4.06666 99.1946 3.43667 99.0546 3.04C98.9379 2.62 98.6813 2.34 98.2846 2.2C97.9113 2.03667 97.3629 1.94333 96.6396 1.92V1.22C97.2463 1.24333 98.0279 1.26667 98.9846 1.29C99.9646 1.31333 101.026 1.325 102.17 1.325C103.15 1.325 104.118 1.31333 105.075 1.29C106.031 1.26667 106.825 1.24333 107.455 1.22ZM134.124 1.22V1.885C133.377 2.04833 132.572 2.375 131.709 2.865C130.869 3.355 129.982 4.14833 129.049 5.245L122.469 13.085L124.499 10.18L132.829 23.165C133.155 23.7017 133.505 24.1333 133.879 24.46C134.252 24.7867 134.742 25.0667 135.349 25.3V26C134.532 25.9533 133.622 25.93 132.619 25.93C131.615 25.9067 130.705 25.895 129.889 25.895C129.399 25.895 128.804 25.9067 128.104 25.93C127.404 25.93 126.517 25.9533 125.444 26V25.3C126.4 25.2533 126.972 25.125 127.159 24.915C127.369 24.6817 127.287 24.285 126.914 23.725L121.839 15.5C121.512 14.9633 121.22 14.5667 120.964 14.31C120.707 14.03 120.45 13.8433 120.194 13.75C119.937 13.6333 119.599 13.5633 119.179 13.54V12.805C120.205 12.7817 121.115 12.5017 121.909 11.965C122.725 11.4283 123.612 10.6117 124.569 9.515L126.634 7.03C127.52 5.98 128.034 5.08167 128.174 4.335C128.337 3.565 128.185 2.97 127.719 2.55C127.275 2.13 126.587 1.90833 125.654 1.885V1.22C126.237 1.24333 126.785 1.26667 127.299 1.29C127.835 1.29 128.384 1.30167 128.944 1.325C129.527 1.325 130.157 1.325 130.834 1.325C131.51 1.325 132.117 1.31333 132.654 1.29C133.214 1.26667 133.704 1.24333 134.124 1.22ZM122.014 1.22V1.92C121.267 1.94333 120.695 2.03667 120.299 2.2C119.925 2.34 119.68 2.62 119.564 3.04C119.447 3.43667 119.389 4.06666 119.389 4.93V22.29C119.389 23.13 119.447 23.76 119.564 24.18C119.704 24.6 119.96 24.88 120.334 25.02C120.707 25.16 121.267 25.2533 122.014 25.3V26C121.384 25.9533 120.59 25.93 119.634 25.93C118.677 25.9067 117.709 25.895 116.729 25.895C115.609 25.895 114.547 25.9067 113.544 25.93C112.564 25.93 111.782 25.9533 111.199 26V25.3C111.945 25.2533 112.505 25.16 112.879 25.02C113.252 24.88 113.497 24.6 113.614 24.18C113.754 23.76 113.824 23.13 113.824 22.29V4.93C113.824 4.06666 113.754 3.43667 113.614 3.04C113.497 2.62 113.24 2.34 112.844 2.2C112.47 2.03667 111.922 1.94333 111.199 1.92V1.22C111.782 1.24333 112.564 1.26667 113.544 1.29C114.547 1.31333 115.609 1.325 116.729 1.325C117.709 1.325 118.677 1.31333 119.634 1.29C120.59 1.26667 121.384 1.24333 122.014 1.22ZM149.274 1.15L157.779 23.06C158.106 23.9 158.467 24.4833 158.864 24.81C159.284 25.1133 159.657 25.2767 159.984 25.3V26C159.284 25.9533 158.456 25.93 157.499 25.93C156.566 25.9067 155.621 25.895 154.664 25.895C153.591 25.895 152.576 25.9067 151.619 25.93C150.662 25.93 149.904 25.9533 149.344 26V25.3C150.534 25.2533 151.281 25.055 151.584 24.705C151.911 24.3317 151.841 23.55 151.374 22.36L145.424 6.085L146.054 5.175L140.734 19.035C140.221 20.3183 139.906 21.3683 139.789 22.185C139.696 23.0017 139.754 23.6317 139.964 24.075C140.197 24.5183 140.559 24.8333 141.049 25.02C141.562 25.1833 142.169 25.2767 142.869 25.3V26C142.099 25.9533 141.364 25.93 140.664 25.93C139.964 25.9067 139.252 25.895 138.529 25.895C138.016 25.895 137.526 25.9067 137.059 25.93C136.616 25.93 136.219 25.9533 135.869 26V25.3C136.359 25.2067 136.861 24.8917 137.374 24.355C137.887 23.8183 138.389 22.9083 138.879 21.625L146.859 1.15C147.232 1.17333 147.629 1.185 148.049 1.185C148.492 1.185 148.901 1.17333 149.274 1.15ZM151.724 15.92V16.62H141.294L141.644 15.92H151.724ZM161.645 1.22C162.229 1.24333 163.01 1.26667 163.99 1.29C164.994 1.31333 165.985 1.325 166.965 1.325C168.085 1.325 169.17 1.31333 170.22 1.29C171.27 1.26667 172.017 1.255 172.46 1.255C174.63 1.255 176.427 1.5 177.85 1.99C179.297 2.45667 180.37 3.145 181.07 4.055C181.794 4.965 182.155 6.06167 182.155 7.345C182.155 8.13833 181.992 8.94333 181.665 9.76C181.339 10.5533 180.779 11.3 179.985 12C179.215 12.6767 178.154 13.225 176.8 13.645C175.447 14.0417 173.744 14.24 171.69 14.24H168.33V13.54H171.34C172.717 13.54 173.755 13.2833 174.455 12.77C175.179 12.2333 175.669 11.5333 175.925 10.67C176.205 9.78333 176.345 8.80333 176.345 7.73C176.345 5.88667 176.019 4.46333 175.365 3.46C174.712 2.43333 173.592 1.92 172.005 1.92C171.095 1.92 170.5 2.11833 170.22 2.515C169.964 2.91167 169.835 3.71666 169.835 4.93V22.29C169.835 23.13 169.894 23.76 170.01 24.18C170.15 24.6 170.407 24.88 170.78 25.02C171.154 25.16 171.714 25.2533 172.46 25.3V26C171.83 25.9533 171.037 25.93 170.08 25.93C169.124 25.9067 168.155 25.895 167.175 25.895C166.055 25.895 164.994 25.9067 163.99 25.93C163.01 25.93 162.229 25.9533 161.645 26V25.3C162.392 25.2533 162.952 25.16 163.325 25.02C163.699 24.88 163.944 24.6 164.06 24.18C164.2 23.76 164.27 23.13 164.27 22.29V4.93C164.27 4.06666 164.2 3.43667 164.06 3.04C163.944 2.62 163.687 2.34 163.29 2.2C162.917 2.03667 162.369 1.94333 161.645 1.92V1.22ZM168.26 13.645C169.264 13.6683 170.127 13.715 170.85 13.785C171.597 13.855 172.25 13.925 172.81 13.995C173.37 14.0417 173.872 14.0767 174.315 14.1C176.439 14.2867 178.002 14.7417 179.005 15.465C180.032 16.1883 180.697 17.2733 181 18.72L181.805 22.325C182.015 23.2583 182.237 23.9117 182.47 24.285C182.704 24.6583 183.042 24.845 183.485 24.845C183.789 24.8217 184.034 24.7517 184.22 24.635C184.43 24.495 184.652 24.2967 184.885 24.04L185.375 24.46C184.745 25.1833 184.069 25.6967 183.345 26C182.622 26.3267 181.747 26.49 180.72 26.49C179.46 26.49 178.422 26.2217 177.605 25.685C176.789 25.1483 176.252 24.1567 175.995 22.71L175.365 19.21C175.202 18.23 175.004 17.3783 174.77 16.655C174.537 15.9083 174.21 15.325 173.79 14.905C173.394 14.4617 172.834 14.24 172.11 14.24H168.33L168.26 13.645ZM208.456 1.22C208.363 2.41 208.293 3.55333 208.246 4.65C208.223 5.74667 208.211 6.58667 208.211 7.17C208.211 7.68333 208.223 8.17333 208.246 8.64C208.269 9.10667 208.293 9.50333 208.316 9.83H207.511C207.138 7.87 206.659 6.31833 206.076 5.175C205.516 4.03167 204.839 3.22667 204.046 2.76C203.253 2.27 202.319 2.025 201.246 2.025H200.441V22.01C200.441 22.9433 200.534 23.6433 200.721 24.11C200.931 24.5767 201.304 24.8917 201.841 25.055C202.378 25.195 203.159 25.2767 204.186 25.3V26C203.463 25.9767 202.494 25.9533 201.281 25.93C200.091 25.9067 198.843 25.895 197.536 25.895C196.253 25.895 195.039 25.9067 193.896 25.93C192.753 25.9533 191.831 25.9767 191.131 26V25.3C192.181 25.2767 192.974 25.195 193.511 25.055C194.048 24.8917 194.409 24.5767 194.596 24.11C194.783 23.6433 194.876 22.9433 194.876 22.01V2.025H194.106C193.033 2.025 192.099 2.27 191.306 2.76C190.513 3.22667 189.836 4.03167 189.276 5.175C188.716 6.295 188.226 7.84667 187.806 9.83H187.001C187.048 9.50333 187.071 9.10667 187.071 8.64C187.094 8.17333 187.106 7.68333 187.106 7.17C187.106 6.58667 187.083 5.74667 187.036 4.65C187.013 3.55333 186.954 2.41 186.861 1.22C187.934 1.24333 189.101 1.26667 190.361 1.29C191.644 1.31333 192.928 1.325 194.211 1.325C195.494 1.325 196.649 1.325 197.676 1.325C198.726 1.325 199.881 1.325 201.141 1.325C202.424 1.325 203.708 1.31333 204.991 1.29C206.274 1.26667 207.429 1.24333 208.456 1.22ZM230.68 1.22C230.587 2.24667 230.517 3.23833 230.47 4.195C230.447 5.15167 230.435 5.88667 230.435 6.4C230.435 6.86667 230.447 7.31 230.47 7.73C230.493 8.15 230.517 8.5 230.54 8.78H229.735C229.502 7.07667 229.14 5.735 228.65 4.755C228.16 3.75167 227.518 3.05167 226.725 2.655C225.955 2.235 225.045 2.025 223.995 2.025H222.56C221.883 2.025 221.37 2.08333 221.02 2.2C220.67 2.31667 220.437 2.55 220.32 2.9C220.203 3.25 220.145 3.78667 220.145 4.51V22.71C220.145 23.4333 220.203 23.97 220.32 24.32C220.437 24.67 220.67 24.9033 221.02 25.02C221.37 25.1367 221.883 25.195 222.56 25.195H224.275C225.325 25.195 226.247 24.9733 227.04 24.53C227.857 24.0633 228.545 23.2817 229.105 22.185C229.688 21.0883 230.132 19.6067 230.435 17.74H231.24C231.17 18.4867 231.135 19.4667 231.135 20.68C231.135 21.2167 231.147 21.975 231.17 22.955C231.193 23.935 231.263 24.95 231.38 26C230.19 25.9533 228.848 25.93 227.355 25.93C225.862 25.9067 224.532 25.895 223.365 25.895C222.782 25.895 222.035 25.895 221.125 25.895C220.215 25.895 219.235 25.9067 218.185 25.93C217.135 25.93 216.073 25.9417 215 25.965C213.927 25.965 212.912 25.9767 211.955 26V25.3C212.702 25.2533 213.262 25.16 213.635 25.02C214.008 24.88 214.253 24.6 214.37 24.18C214.51 23.76 214.58 23.13 214.58 22.29V4.93C214.58 4.06666 214.51 3.43667 214.37 3.04C214.253 2.62 213.997 2.34 213.6 2.2C213.227 2.03667 212.678 1.94333 211.955 1.92V1.22C212.912 1.24333 213.927 1.26667 215 1.29C216.073 1.29 217.135 1.30167 218.185 1.325C219.235 1.325 220.215 1.325 221.125 1.325C222.035 1.325 222.782 1.325 223.365 1.325C224.438 1.325 225.652 1.325 227.005 1.325C228.382 1.30167 229.607 1.26667 230.68 1.22ZM225.22 13.19C225.22 13.19 225.22 13.3067 225.22 13.54C225.22 13.7733 225.22 13.89 225.22 13.89H219.095C219.095 13.89 219.095 13.7733 219.095 13.54C219.095 13.3067 219.095 13.19 219.095 13.19H225.22ZM226.235 8.57C226.142 9.9 226.095 10.915 226.095 11.615C226.118 12.315 226.13 12.9567 226.13 13.54C226.13 14.1233 226.142 14.765 226.165 15.465C226.188 16.165 226.247 17.18 226.34 18.51H225.535C225.418 17.6933 225.197 16.935 224.87 16.235C224.567 15.535 224.123 14.975 223.54 14.555C222.957 14.1117 222.198 13.89 221.265 13.89V13.19C221.965 13.19 222.56 13.05 223.05 12.77C223.54 12.4667 223.937 12.0817 224.24 11.615C224.567 11.125 224.823 10.6117 225.01 10.075C225.197 9.53833 225.337 9.03667 225.43 8.57H226.235ZM244.288 0.764999C245.664 0.764999 246.726 0.916666 247.473 1.22C248.219 1.5 248.861 1.80333 249.398 2.13C249.678 2.29333 249.899 2.42167 250.063 2.515C250.249 2.585 250.424 2.62 250.588 2.62C250.821 2.62 250.984 2.49167 251.078 2.235C251.194 1.97833 251.288 1.59333 251.358 1.08H252.163C252.139 1.52333 252.104 2.06 252.058 2.69C252.034 3.29667 252.011 4.10167 251.988 5.105C251.988 6.10833 251.988 7.42667 251.988 9.06H251.183C251.089 7.84667 250.809 6.66833 250.343 5.525C249.876 4.38167 249.211 3.44833 248.348 2.725C247.508 1.97833 246.469 1.605 245.233 1.605C244.113 1.605 243.191 1.92 242.468 2.55C241.744 3.18 241.383 4.055 241.383 5.175C241.383 6.10833 241.616 6.91333 242.083 7.59C242.549 8.24333 243.226 8.885 244.113 9.515C245.023 10.145 246.119 10.9033 247.403 11.79C248.523 12.5133 249.526 13.2367 250.413 13.96C251.299 14.6833 252.011 15.5 252.548 16.41C253.084 17.32 253.353 18.405 253.353 19.665C253.353 21.205 252.944 22.4767 252.128 23.48C251.334 24.4833 250.284 25.2417 248.978 25.755C247.671 26.245 246.236 26.49 244.673 26.49C243.226 26.49 242.071 26.35 241.208 26.07C240.344 25.79 239.621 25.4983 239.038 25.195C238.524 24.8683 238.128 24.705 237.848 24.705C237.614 24.705 237.439 24.8333 237.323 25.09C237.229 25.3467 237.148 25.7317 237.078 26.245H236.273C236.319 25.685 236.343 25.0317 236.343 24.285C236.366 23.5383 236.378 22.57 236.378 21.38C236.401 20.1667 236.413 18.6383 236.413 16.795H237.218C237.311 18.335 237.568 19.7817 237.988 21.135C238.431 22.465 239.096 23.5383 239.983 24.355C240.893 25.1717 242.094 25.58 243.588 25.58C244.404 25.58 245.128 25.44 245.758 25.16C246.411 24.8567 246.936 24.4133 247.333 23.83C247.729 23.2467 247.928 22.5233 247.928 21.66C247.928 20.68 247.694 19.8283 247.228 19.105C246.784 18.3817 246.166 17.705 245.373 17.075C244.603 16.445 243.704 15.8033 242.678 15.15C241.581 14.4267 240.554 13.7033 239.598 12.98C238.641 12.2567 237.871 11.4283 237.288 10.495C236.728 9.56167 236.448 8.45333 236.448 7.17C236.448 5.7 236.809 4.49833 237.533 3.565C238.279 2.60833 239.248 1.90833 240.438 1.465C241.651 0.998333 242.934 0.764999 244.288 0.764999Z"
                      fill="url(#paint0_radial_1_208)"
                    />
                    <defs>
                      <radialGradient
                        id="paint0_radial_1_208"
                        cx="0"
                        cy="0"
                        r="1"
                        gradientUnits="userSpaceOnUse"
                        gradientTransform="translate(-1 25.9999) scale(257 2331.03)"
                      >
                        <stop stop-color="#FF7900" />
                        <stop offset="0.505208" stop-color="#15C0DF" />
                        <stop offset="1" stop-color="#DF494A" />
                      </radialGradient>
                    </defs>
                  </svg>
